<mxfile host="app.diagrams.net" modified="2020-11-18T07:42:16.879Z" agent="5.0 (Windows NT 10.0; Win64; x64) AppleWebKit/537.36 (KHTML, like Gecko) Chrome/86.0.4240.198 Safari/537.36" etag="aMOZhH-wARJHR-1bazUO" version="13.9.9" type="github">
  <diagram id="cAj1qtsFVKxZxiu678Lv" name="Page-1">
    <mxGraphModel dx="1409" dy="839" grid="0" gridSize="10" guides="1" tooltips="1" connect="1" arrows="1" fold="1" page="1" pageScale="1" pageWidth="1654" pageHeight="2336" math="0" shadow="0">
      <root>
        <mxCell id="0" />
        <mxCell id="1" parent="0" />
        <mxCell id="NxLp5gEP2QYgd8GNl1Bz-1" value="InternalRecommend.Dev&lt;br&gt;ResumeController.ExistPersonApply" style="shape=note;size=12;whiteSpace=wrap;html=1;" parent="1" vertex="1">
          <mxGeometry x="176" y="129" width="201" height="46" as="geometry" />
        </mxCell>
        <mxCell id="NxLp5gEP2QYgd8GNl1Bz-4" value="" style="edgeStyle=orthogonalEdgeStyle;rounded=0;orthogonalLoop=1;jettySize=auto;html=1;" parent="1" source="NxLp5gEP2QYgd8GNl1Bz-2" target="NxLp5gEP2QYgd8GNl1Bz-3" edge="1">
          <mxGeometry relative="1" as="geometry" />
        </mxCell>
        <mxCell id="NxLp5gEP2QYgd8GNl1Bz-2" value="网申中是否存在&lt;br&gt;查 PersonApplySnapShot表" style="rounded=0;whiteSpace=wrap;html=1;" parent="1" vertex="1">
          <mxGeometry x="511.5" y="195" width="197" height="44" as="geometry" />
        </mxCell>
        <mxCell id="NxLp5gEP2QYgd8GNl1Bz-6" value="是" style="edgeStyle=orthogonalEdgeStyle;rounded=0;orthogonalLoop=1;jettySize=auto;html=1;" parent="1" source="NxLp5gEP2QYgd8GNl1Bz-3" target="NxLp5gEP2QYgd8GNl1Bz-32" edge="1">
          <mxGeometry x="-0.6023" relative="1" as="geometry">
            <mxPoint x="480" y="315" as="targetPoint" />
            <mxPoint as="offset" />
          </mxGeometry>
        </mxCell>
        <mxCell id="NxLp5gEP2QYgd8GNl1Bz-8" value="否" style="edgeStyle=orthogonalEdgeStyle;rounded=0;orthogonalLoop=1;jettySize=auto;html=1;" parent="1" source="NxLp5gEP2QYgd8GNl1Bz-3" target="NxLp5gEP2QYgd8GNl1Bz-7" edge="1">
          <mxGeometry relative="1" as="geometry" />
        </mxCell>
        <mxCell id="NxLp5gEP2QYgd8GNl1Bz-3" value="存在" style="rhombus;whiteSpace=wrap;html=1;" parent="1" vertex="1">
          <mxGeometry x="570" y="262" width="80" height="50" as="geometry" />
        </mxCell>
        <mxCell id="NxLp5gEP2QYgd8GNl1Bz-10" value="" style="edgeStyle=orthogonalEdgeStyle;rounded=0;orthogonalLoop=1;jettySize=auto;html=1;" parent="1" source="NxLp5gEP2QYgd8GNl1Bz-7" target="NxLp5gEP2QYgd8GNl1Bz-9" edge="1">
          <mxGeometry relative="1" as="geometry" />
        </mxCell>
        <mxCell id="NxLp5gEP2QYgd8GNl1Bz-7" value="获取 内推设置 InternalSetting" style="rounded=0;whiteSpace=wrap;html=1;" parent="1" vertex="1">
          <mxGeometry x="515" y="380" width="190" height="30" as="geometry" />
        </mxCell>
        <mxCell id="NxLp5gEP2QYgd8GNl1Bz-14" value="允许" style="edgeStyle=orthogonalEdgeStyle;rounded=0;orthogonalLoop=1;jettySize=auto;html=1;" parent="1" source="NxLp5gEP2QYgd8GNl1Bz-9" target="NxLp5gEP2QYgd8GNl1Bz-13" edge="1">
          <mxGeometry relative="1" as="geometry" />
        </mxCell>
        <mxCell id="NxLp5gEP2QYgd8GNl1Bz-29" value="不允许" style="edgeStyle=orthogonalEdgeStyle;rounded=0;orthogonalLoop=1;jettySize=auto;html=1;exitX=0;exitY=0.5;exitDx=0;exitDy=0;" parent="1" source="NxLp5gEP2QYgd8GNl1Bz-9" target="NxLp5gEP2QYgd8GNl1Bz-32" edge="1">
          <mxGeometry x="-0.5028" relative="1" as="geometry">
            <mxPoint x="480" y="465" as="targetPoint" />
            <mxPoint as="offset" />
          </mxGeometry>
        </mxCell>
        <mxCell id="NxLp5gEP2QYgd8GNl1Bz-9" value="允许重复" style="rhombus;whiteSpace=wrap;html=1;" parent="1" vertex="1">
          <mxGeometry x="570" y="440" width="80" height="50" as="geometry" />
        </mxCell>
        <mxCell id="NxLp5gEP2QYgd8GNl1Bz-31" value="" style="edgeStyle=orthogonalEdgeStyle;rounded=0;orthogonalLoop=1;jettySize=auto;html=1;" parent="1" source="NxLp5gEP2QYgd8GNl1Bz-13" target="NxLp5gEP2QYgd8GNl1Bz-30" edge="1">
          <mxGeometry relative="1" as="geometry" />
        </mxCell>
        <mxCell id="NxLp5gEP2QYgd8GNl1Bz-13" value="取 职位广告 JobAd、JobInfo" style="rounded=0;whiteSpace=wrap;html=1;" parent="1" vertex="1">
          <mxGeometry x="515" y="530" width="190" height="30" as="geometry" />
        </mxCell>
        <mxCell id="NxLp5gEP2QYgd8GNl1Bz-26" value="拿到PersonID" style="edgeStyle=orthogonalEdgeStyle;rounded=0;orthogonalLoop=1;jettySize=auto;html=1;" parent="1" source="NxLp5gEP2QYgd8GNl1Bz-16" target="NxLp5gEP2QYgd8GNl1Bz-25" edge="1">
          <mxGeometry x="-0.3333" relative="1" as="geometry">
            <mxPoint as="offset" />
          </mxGeometry>
        </mxCell>
        <mxCell id="NxLp5gEP2QYgd8GNl1Bz-33" value="不存在" style="edgeStyle=orthogonalEdgeStyle;rounded=0;orthogonalLoop=1;jettySize=auto;html=1;" parent="1" source="NxLp5gEP2QYgd8GNl1Bz-16" target="NxLp5gEP2QYgd8GNl1Bz-32" edge="1">
          <mxGeometry x="-0.0507" relative="1" as="geometry">
            <mxPoint as="offset" />
          </mxGeometry>
        </mxCell>
        <mxCell id="NxLp5gEP2QYgd8GNl1Bz-16" value="personExist" style="rhombus;whiteSpace=wrap;html=1;" parent="1" vertex="1">
          <mxGeometry x="570" y="695" width="80" height="50" as="geometry" />
        </mxCell>
        <mxCell id="NxLp5gEP2QYgd8GNl1Bz-24" value="" style="edgeStyle=orthogonalEdgeStyle;rounded=0;orthogonalLoop=1;jettySize=auto;html=1;" parent="1" source="NxLp5gEP2QYgd8GNl1Bz-30" target="NxLp5gEP2QYgd8GNl1Bz-16" edge="1">
          <mxGeometry relative="1" as="geometry">
            <mxPoint x="610" y="665" as="sourcePoint" />
          </mxGeometry>
        </mxCell>
        <mxCell id="NxLp5gEP2QYgd8GNl1Bz-28" value="" style="edgeStyle=orthogonalEdgeStyle;rounded=0;orthogonalLoop=1;jettySize=auto;html=1;" parent="1" source="NxLp5gEP2QYgd8GNl1Bz-25" target="NxLp5gEP2QYgd8GNl1Bz-27" edge="1">
          <mxGeometry relative="1" as="geometry" />
        </mxCell>
        <mxCell id="NxLp5gEP2QYgd8GNl1Bz-25" value="获取PersonInfo" style="rounded=0;whiteSpace=wrap;html=1;" parent="1" vertex="1">
          <mxGeometry x="515" y="790" width="190" height="30" as="geometry" />
        </mxCell>
        <mxCell id="NxLp5gEP2QYgd8GNl1Bz-27" value="返回True，重复+职位" style="rounded=1;whiteSpace=wrap;html=1;" parent="1" vertex="1">
          <mxGeometry x="550" y="840" width="120" height="40" as="geometry" />
        </mxCell>
        <mxCell id="NxLp5gEP2QYgd8GNl1Bz-30" value="&lt;span&gt;查SearchCV中有无存在&lt;/span&gt;" style="shape=process;whiteSpace=wrap;html=1;backgroundOutline=1;" parent="1" vertex="1">
          <mxGeometry x="509" y="603" width="202" height="43" as="geometry" />
        </mxCell>
        <mxCell id="NxLp5gEP2QYgd8GNl1Bz-32" value="返回False，不重复" style="whiteSpace=wrap;html=1;rounded=1;" parent="1" vertex="1">
          <mxGeometry x="354" y="840" width="120" height="40" as="geometry" />
        </mxCell>
        <mxCell id="jFR7ZG9WP6rk3sukpmqP-1" value="&lt;span style=&quot;color: rgb(0 , 0 , 0) ; font-size: 12px&quot;&gt;ESB调用：&lt;/span&gt;&lt;span style=&quot;color: rgb(0 , 0 , 0) ; font-size: 12px&quot;&gt;Beisen.Recruiting.ESB.Dev&lt;/span&gt;&lt;span style=&quot;color: rgb(0 , 0 , 0) ; font-size: 12px&quot;&gt;&lt;br&gt;IApplicantsServiceProvider.IsPersonExist&lt;br&gt;&lt;br&gt;&lt;/span&gt;&lt;span style=&quot;color: rgb(0 , 0 , 0) ; font-size: 12px&quot;&gt;ESB调用：Beisen.Recruiting.Core.Dev&lt;/span&gt;&lt;br style=&quot;color: rgb(0 , 0 , 0) ; font-size: 12px&quot;&gt;&lt;span style=&quot;color: rgb(0 , 0 , 0) ; font-size: 12px&quot;&gt;ApplicantProvider.GetSearchCVIdIfExist&lt;/span&gt;&lt;br style=&quot;color: rgb(0 , 0 , 0) ; font-size: 12px&quot;&gt;&lt;br style=&quot;color: rgb(0 , 0 , 0) ; font-size: 12px&quot;&gt;&lt;span style=&quot;color: rgb(0 , 0 , 0) ; font-size: 12px&quot;&gt;执行存储过程：SearchCV_CheckExist&lt;/span&gt;&lt;br style=&quot;color: rgb(0 , 0 , 0) ; font-size: 12px&quot;&gt;&lt;span style=&quot;color: rgb(0 , 0 , 0) ; font-size: 12px&quot;&gt;查SearchCV表：Mobile = @Mobile&amp;nbsp; 或&amp;nbsp;email = @Email&lt;/span&gt;&lt;span style=&quot;color: rgb(0 , 0 , 0) ; font-size: 12px&quot;&gt;&lt;br&gt;&lt;/span&gt;" style="shape=note;strokeWidth=2;fontSize=14;size=20;whiteSpace=wrap;html=1;fillColor=#fff2cc;strokeColor=#d6b656;fontColor=#666600;rounded=1;" vertex="1" parent="1">
          <mxGeometry x="1032" y="441" width="320" height="162" as="geometry" />
        </mxCell>
        <mxCell id="jFR7ZG9WP6rk3sukpmqP-2" value="&lt;span style=&quot;color: rgb(0 , 0 , 0) ; font-size: 12px&quot;&gt;执行存储过程PersonApplySnapshot_ExistPerson&lt;/span&gt;&lt;br style=&quot;color: rgb(0 , 0 , 0) ; font-size: 12px&quot;&gt;&lt;span style=&quot;color: rgb(0 , 0 , 0) ; font-size: 12px&quot;&gt;email=@Email or (Name=@Name and Mobile=@Moblie)&lt;/span&gt;&lt;span style=&quot;color: rgb(0 , 0 , 0) ; font-size: 12px&quot;&gt;&lt;br&gt;&lt;/span&gt;" style="shape=note;strokeWidth=2;fontSize=14;size=20;whiteSpace=wrap;html=1;fillColor=#fff2cc;strokeColor=#d6b656;fontColor=#666600;rounded=1;" vertex="1" parent="1">
          <mxGeometry x="1016" y="146" width="320" height="58" as="geometry" />
        </mxCell>
        <mxCell id="jFR7ZG9WP6rk3sukpmqP-3" value="&lt;b&gt;检查人才有效期&lt;/b&gt;&lt;br&gt;通过，则继续向下执行&lt;br&gt;不通过，返回重复" style="rounded=0;whiteSpace=wrap;html=1;fillColor=#d5e8d4;strokeColor=#82b366;" vertex="1" parent="1">
          <mxGeometry x="773" y="312" width="179" height="62" as="geometry" />
        </mxCell>
        <mxCell id="jFR7ZG9WP6rk3sukpmqP-4" value="" style="html=1;shadow=0;dashed=0;align=center;verticalAlign=middle;shape=mxgraph.arrows2.stripedArrow;dy=0.52;dx=19;notch=37;rounded=1;rotation=-180;fillColor=#d5e8d4;strokeColor=#82b366;" vertex="1" parent="1">
          <mxGeometry x="641" y="317" width="112" height="40" as="geometry" />
        </mxCell>
      </root>
    </mxGraphModel>
  </diagram>
</mxfile>
